<?xml version="1.0" encoding="iso-8859-1"?>
<!-- Generator: Adobe Illustrator 18.1.1, SVG Export Plug-In . SVG Version: 6.00 Build 0)  -->
<svg version="1.1" id="Capa_1" xmlns="http://www.w3.org/2000/svg" xmlns:xlink="http://www.w3.org/1999/xlink" x="0px" y="0px"
	 viewBox="-70 -70 750 750" style="enable-background:new 0 0 612.003 612.003;" xml:space="preserve">
<g>
	<path d="M534.322,2.55c-3.832-2.667-8.727-3.282-13.095-1.655l-175.16,65.093h-56.87V49.938v-0.023V49.69
		c0-0.276-0.066-0.536-0.083-0.809c-0.031-0.501-0.034-1-0.12-1.504c-0.011-0.071-0.04-0.134-0.054-0.202
		c-0.097-0.544-0.259-1.06-0.416-1.581c-0.094-0.302-0.168-0.61-0.279-0.903c-0.214-0.57-0.482-1.108-0.764-1.641
		c-0.111-0.208-0.217-0.419-0.336-0.621c-0.333-0.561-0.709-1.086-1.114-1.59c-0.105-0.131-0.211-0.262-0.322-0.39
		c-0.459-0.536-0.952-1.029-1.484-1.49c-0.068-0.06-0.14-0.114-0.208-0.171c-2.47-2.057-5.602-3.342-9.066-3.342h-54.984
		c-0.228,0-0.439,0.057-0.664,0.066H85.814c-7.869,0-14.246,6.376-14.246,14.246s6.376,14.246,14.246,14.246h105.169L81.116,102.388
		c-7.425,2.593-11.343,10.719-8.75,18.146c2.054,5.872,7.562,9.55,13.451,9.55c1.559,0,3.146-0.256,4.698-0.801l115.21-40.248
		v52.223c-54.117,17.628-93.348,68.534-93.348,128.456v252.791c0,49.348,40.148,89.496,89.496,89.496h91.174
		c49.348,0,89.496-40.148,89.496-89.496V269.716c0-59.921-39.23-110.828-93.345-128.456V94.479h57.67l175.142,53.724
		c1.37,0.419,2.781,0.627,4.18,0.627c3.014,0,5.989-0.957,8.471-2.789c3.633-2.684,5.775-6.938,5.775-11.457V14.249
		C540.437,9.582,538.152,5.214,534.322,2.55z M167.016,514.518c0,7.869-6.376,14.246-14.246,14.246s-14.246-6.377-14.246-14.246
		V257.379c0-7.869,6.376-14.246,14.246-14.246s14.246,6.376,14.246,14.246V514.518z"/>
</g>
<g>
</g>
<g>
</g>
<g>
</g>
<g>
</g>
<g>
</g>
<g>
</g>
<g>
</g>
<g>
</g>
<g>
</g>
<g>
</g>
<g>
</g>
<g>
</g>
<g>
</g>
<g>
</g>
<g>
</g>
</svg>
