<?xml version="1.0" standalone="no"?>
<!DOCTYPE svg PUBLIC "-//W3C//DTD SVG 20010904//EN"
 "http://www.w3.org/TR/2001/REC-SVG-20010904/DTD/svg10.dtd">
<svg version="1.0" xmlns="http://www.w3.org/2000/svg"
 width="512.000000pt" height="495.000000pt" viewBox="0 0 512.000000 495.000000"
 preserveAspectRatio="xMidYMid meet">

<g transform="translate(0.000000,495.000000) scale(0.100000,-0.100000)"
fill="#000000" stroke="none">
<!--<path d="M3503 4935 c-39 -17 -91 -91 -75 -107 7 -7 18 1 37 30 33 50 70 66
130 58 36 -6 45 -4 45 7 0 28 -83 36 -137 12z"/>
<path d="M3526 4859 c-37 -29 -51 -58 -36 -73 10 -8 14 -7 18 3 12 35 53 63
83 59 33 -5 50 9 28 23 -24 15 -65 10 -93 -12z"/>
<path d="M3757 4800 c-116 -20 -229 -107 -284 -217 -26 -53 -28 -67 -28 -168
0 -104 2 -113 32 -170 40 -77 112 -147 188 -182 53 -25 71 -28 160 -28 89 0
107 3 161 28 74 35 152 111 190 187 21 41 29 74 32 134 6 102 -10 171 -58 245
-83 128 -242 197 -393 171z"/>
<path d="M2583 4138 c-400 -191 -633 -307 -633 -316 0 -18 -64 -45 663 281
345 155 627 286 627 292 0 6 -6 19 -12 28 -12 14 -79 -15 -645 -285z"/>
<path d="M1271 4283 c-6 -21 -15 -78 -22 -126 -10 -75 -10 -90 2 -98 24 -15
26 -11 48 59 50 165 51 202 7 202 -21 0 -27 -7 -35 -37z"/>
<path d="M4348 4285 c-3 -4 -2 -24 3 -46 12 -53 -8 -99 -55 -128 -56 -35 -45
-56 14 -26 58 30 88 99 70 165 -10 38 -19 47 -32 35z"/>
<path d="M1397 4243 c-4 -24 -2 -40 6 -45 22 -14 45 -8 50 12 4 14 10 18 24
13 52 -18 49 -54 -8 -83 -45 -24 -69 -55 -69 -91 0 -21 6 -28 26 -32 18 -3 27
0 31 12 10 33 21 46 49 60 46 21 73 51 80 87 12 64 -37 104 -129 104 l-54 0
-6 -37z"/>
<path d="M4279 4273 c-1 -5 0 -25 1 -45 1 -28 -4 -42 -24 -59 -25 -22 -35 -49
-17 -49 5 0 23 13 40 29 31 29 41 74 25 115 -6 16 -23 22 -25 9z"/>
<path d="M2658 3931 c-575 -160 -738 -211 -680 -211 14 0 1355 340 1361 345 1
2 -1 15 -5 28 l-9 24 -667 -186z"/>
<path d="M1218 4019 c-38 -21 -11 -74 34 -67 30 4 38 46 12 65 -21 15 -24 15
-46 2z"/>-->
<path d="M1380 3971 c-13 -25 -4 -48 21 -56 26 -8 49 11 49 40 0 37 -52 49
-70 16z"/>
<path d="M645 3930 c-4 -6 -4 -54 0 -107 6 -80 5 -95 -6 -90 -8 3 -56 24 -108
47 -66 29 -97 38 -105 30 -7 -7 4 -39 37 -106 27 -53 47 -97 45 -99 -2 -1 -52
-7 -111 -13 -60 -7 -113 -14 -118 -17 -23 -15 -2 -34 91 -89 55 -32 98 -62 95
-67 -3 -5 -35 -29 -70 -55 -93 -66 -89 -75 38 -89 31 -4 57 -8 57 -10 0 -2
-22 -39 -50 -82 -78 -122 -71 -129 74 -71 81 31 106 46 106 60 0 24 -19 23
-90 -6 l-60 -25 12 22 c6 12 27 46 46 75 21 32 32 56 26 62 -5 5 -38 13 -74
17 l-65 8 63 44 c38 27 62 50 60 60 -2 9 -37 35 -78 58 -41 23 -76 47 -78 51
-1 5 35 13 82 17 51 4 89 12 96 20 8 10 1 33 -29 93 l-40 80 91 -39 c50 -22
95 -36 99 -32 5 5 9 45 11 91 l3 82 63 -80 c35 -44 71 -80 80 -80 9 1 33 22
52 48 l35 47 9 -60 c9 -63 23 -83 42 -62 15 15 -6 181 -25 200 -10 10 -19 4
-44 -28 -18 -21 -41 -50 -52 -63 l-21 -24 -77 96 c-74 91 -98 109 -112 86z"/>
<path d="M1530 3715 l-43 -94 -81 74 -81 74 -6 -105 c-4 -74 -11 -109 -20
-115 -8 -5 -45 -9 -84 -9 -38 0 -76 -4 -83 -8 -9 -6 12 -29 68 -76 44 -37 78
-71 75 -75 -2 -5 -41 -32 -85 -61 -53 -35 -77 -56 -68 -60 7 -4 59 -13 116
-20 118 -14 111 -2 82 -145 -11 -54 -19 -100 -17 -101 2 -2 43 28 91 67 48 39
91 67 95 63 4 -5 25 -51 46 -101 21 -51 41 -93 44 -93 4 0 29 47 55 105 27 58
51 105 55 105 3 0 35 -25 70 -55 36 -30 66 -54 67 -52 2 2 -17 104 -31 165 -5
22 -4 22 97 22 l103 1 -75 68 c-41 38 -73 71 -70 73 3 3 35 32 72 66 l67 62
-94 0 c-111 0 -104 -11 -80 135 8 50 15 93 15 97 0 3 -36 -14 -80 -39 -45 -25
-82 -44 -84 -42 -2 2 -22 41 -45 87 -23 45 -43 82 -45 82 -2 0 -22 -43 -46
-95z m80 -120 c12 -30 24 -55 27 -55 2 0 25 12 49 26 25 15 47 24 49 22 3 -2
0 -31 -5 -64 -16 -95 -16 -94 35 -94 25 0 45 -3 45 -7 0 -3 -15 -19 -32 -34
l-33 -27 34 -36 35 -36 -52 0 -52 0 6 -42 7 -43 -30 28 -30 28 -31 -64 c-16
-36 -33 -75 -37 -86 -9 -31 -18 -21 -49 58 -15 39 -31 71 -35 71 -3 0 -28 -18
-55 -40 -26 -22 -49 -40 -51 -40 -1 0 3 27 10 60 7 33 10 62 6 64 -3 2 -35 7
-69 11 l-64 7 56 37 56 37 -55 45 c-30 24 -54 47 -55 52 0 4 20 7 45 7 l44 0
3 71 3 71 63 -57 c35 -32 64 -56 66 -54 1 2 16 34 32 72 15 37 31 67 35 67 4
0 17 -25 29 -55z"/>
<path d="M1019 3506 c-152 -41 -249 -168 -249 -326 0 -136 66 -242 186 -301
57 -28 76 -33 142 -33 104 0 183 35 253 112 27 30 48 57 45 59 -2 3 -35 -20
-72 -51 -37 -31 -69 -55 -70 -53 -2 1 11 65 27 141 16 76 28 141 25 143 -3 3
-267 43 -286 43 -3 0 40 30 95 66 55 37 104 70 108 74 8 7 -138 141 -152 139
-3 0 -27 -6 -52 -13z"/>
<path d="M2060 3347 c0 -23 14 -25 1503 -275 826 -139 1513 -252 1526 -252 13
0 22 2 20 5 -5 5 -3013 545 -3036 545 -7 0 -13 -10 -13 -23z"/>
<path d="M2020 3106 c0 -18 6 -27 23 -30 59 -13 3030 -366 3035 -362 3 3 3 7
1 9 -2 2 -683 92 -1514 201 -830 109 -1518 200 -1527 203 -14 3 -18 -2 -18
-21z"/>
<path d="M636 3013 c-3 -3 -6 -27 -6 -52 0 -74 38 -121 118 -145 40 -13 25 19
-18 38 -47 21 -70 58 -70 115 0 38 -10 57 -24 44z"/>
<path d="M700 2974 c0 -44 45 -94 84 -94 36 0 32 12 -12 35 -31 17 -37 26 -40
58 -4 50 -32 52 -32 1z"/>
<path d="M1246 2775 c-148 -24 -281 -47 -295 -50 -36 -9 -910 -615 -930 -645
-9 -13 -16 -44 -16 -68 0 -38 5 -48 37 -78 41 -37 88 -45 131 -23 12 7 178
120 369 251 191 132 351 239 355 239 4 0 38 -189 74 -420 48 -303 72 -429 86
-453 10 -18 149 -154 308 -301 160 -147 291 -272 293 -276 1 -5 -54 -170 -124
-367 -132 -376 -142 -420 -111 -480 31 -60 103 -104 170 -104 45 0 118 39 142
76 11 17 90 226 174 465 168 478 171 492 120 562 -13 19 -106 109 -207 202
-100 92 -181 169 -180 170 2 0 116 -2 254 -5 l250 -5 282 -255 c155 -140 301
-265 324 -278 66 -36 148 -23 206 31 55 51 71 140 38 209 -13 26 -120 129
-343 330 -178 161 -339 301 -357 310 -26 13 -77 18 -257 24 l-225 7 -52 330
c-29 182 -51 332 -49 334 2 2 215 -91 473 -207 320 -144 480 -211 505 -212 46
0 75 15 99 55 26 42 25 87 -2 127 -20 29 -90 63 -598 291 -513 231 -580 259
-625 258 -27 -1 -171 -20 -319 -44z"/>
</g>
</svg>
