<svg xmlns="http://www.w3.org/2000/svg" xmlns:xlink="http://www.w3.org/1999/xlink" version="1.1" width="1000" height="1000" viewBox="0 0 1000 1000" xml:space="preserve">
<desc>Created with Fabric.js 3.5.0</desc>
<defs>
</defs>
<rect x="0" y="0" width="100%" height="100%" fill="rgba(255,255,255,0)"/>
<g transform="matrix(4.8889 0 0 4.8889 660.0801 345.6058)" id="352283">
<g style="" vector-effect="non-scaling-stroke">
		<g transform="matrix(1 0 0 1 0 -0.0018)" id="Layer_1">
<path style="stroke: none; stroke-width: 1; stroke-dasharray: none; stroke-linecap: butt; stroke-dashoffset: 0; stroke-linejoin: miter; stroke-miterlimit: 4; is-custom-font: none; font-file-url: none; fill: rgb(0,0,0); fill-rule: nonzero; opacity: 1;" transform=" translate(-50, -49.9982)" d="M 45.697 45.697 c -2.377 2.375 -2.377 6.227 -0.002 8.603 c 2.379 2.38 6.231 2.378 8.606 0.001 c 2.38 -2.378 2.38 -6.228 0 -8.607 C 51.926 43.318 48.075 43.317 45.697 45.697 z" stroke-linecap="round"/>
</g>
		<g transform="matrix(1 0 0 1 28.2489 0.0002)" id="Layer_1">
<path style="stroke: none; stroke-width: 1; stroke-dasharray: none; stroke-linecap: butt; stroke-dashoffset: 0; stroke-linejoin: miter; stroke-miterlimit: 4; is-custom-font: none; font-file-url: none; fill: rgb(0,0,0); fill-rule: nonzero; opacity: 1;" transform=" translate(-78.2489, -50.0002)" d="M 76.549 79.165 c 15.972 -16.109 15.934 -42.207 -0.122 -58.263 c -0.023 -0.023 -0.05 -0.037 -0.073 -0.059 l 0.006 -0.006 l -1.696 -1.698 l -0.02 0.02 c -0.927 -0.738 -2.266 -0.695 -3.136 0.141 l -0.003 -0.003 l -0.026 0.026 c -0.003 0.002 -0.005 0.004 -0.008 0.007 c -0.002 0.002 -0.004 0.005 -0.006 0.008 l -2.773 2.772 c -0.001 0.001 -0.002 0.001 -0.002 0.002 s -0.001 0.002 -0.002 0.002 l -0.2 0.2 l 0.02 0.02 c -0.682 0.868 -0.678 2.087 0.01 2.951 l -0.019 0.019 l 0.19 0.19 l 0 0.001 l 0.001 0 l 1.506 1.505 l 0.027 -0.027 c 0.022 0.023 0.037 0.05 0.06 0.073 c 12.667 12.668 12.707 33.254 0.122 45.974 l -0.017 -0.017 l -1.504 1.504 c -0.001 0.001 -0.002 0.001 -0.003 0.002 s -0.001 0.002 -0.002 0.003 l -0.188 0.188 l 0.019 0.019 c -0.738 0.927 -0.695 2.266 0.141 3.136 l -0.003 0.003 l 0.031 0.031 c 0.001 0.001 0.001 0.002 0.002 0.003 c 0.001 0.001 0.002 0.001 0.003 0.002 l 1.396 1.396 c 0.001 0.001 0.002 0.002 0.002 0.003 s 0.002 0.001 0.003 0.002 l 1.376 1.376 c 0.001 0.001 0.002 0.002 0.002 0.003 c 0.001 0.001 0.002 0.001 0.003 0.002 l 0.198 0.198 l 0.02 -0.02 c 0.868 0.682 2.088 0.679 2.952 -0.009 l 0.019 0.019 l 1.567 -1.568 c 0.002 -0.002 0.003 -0.003 0.005 -0.004 c 0.006 -0.006 0.012 -0.012 0.018 -0.019 l 0.107 -0.107 L 76.549 79.165 z" stroke-linecap="round"/>
</g>
		<g transform="matrix(1 0 0 1 14.218 0.0005)" id="Layer_1">
<path style="stroke: none; stroke-width: 1; stroke-dasharray: none; stroke-linecap: butt; stroke-dashoffset: 0; stroke-linejoin: miter; stroke-miterlimit: 4; is-custom-font: none; font-file-url: none; fill: rgb(0,0,0); fill-rule: nonzero; opacity: 1;" transform=" translate(-64.218, -50.0006)" d="M 64.923 67.54 c 9.561 -9.699 9.523 -25.365 -0.123 -35.01 c -0.023 -0.023 -0.05 -0.037 -0.073 -0.06 l 0.007 -0.007 l -1.697 -1.698 l -0.02 0.02 c -0.927 -0.737 -2.266 -0.695 -3.136 0.141 l -0.003 -0.003 l -0.029 0.029 c -0.002 0.002 -0.003 0.003 -0.005 0.004 s -0.003 0.003 -0.004 0.005 l -2.774 2.774 c -0.001 0.001 -0.003 0.002 -0.004 0.003 c -0.001 0.001 -0.002 0.002 -0.003 0.004 l -0.198 0.198 l 0.02 0.02 c -0.682 0.867 -0.679 2.087 0.009 2.951 l -0.019 0.019 l 0.189 0.189 c 0.001 0.001 0.001 0.001 0.002 0.002 c 0.001 0.001 0.001 0.001 0.002 0.002 l 1.504 1.505 l 0.027 -0.027 c 0.022 0.023 0.037 0.05 0.06 0.073 c 6.258 6.257 6.293 16.407 0.119 22.717 l -0.013 -0.013 l -1.505 1.505 c -0.001 0 -0.001 0.001 -0.002 0.001 s -0.001 0.001 -0.001 0.002 l -0.189 0.189 l 0.019 0.019 c -0.737 0.927 -0.695 2.265 0.141 3.135 l -0.004 0.004 l 2.816 2.815 l 0 0 l 0 0 l 0.201 0.201 l 0.02 -0.02 c 0.868 0.681 2.087 0.678 2.951 -0.009 l 0.02 0.02 l 1.572 -1.572 l 0 0 h 0 l 0.125 -0.125 L 64.923 67.54 z" stroke-linecap="round"/>
</g>
		<g transform="matrix(1 0 0 1 0.0004 0.0017)" id="Layer_1">
<path style="stroke: none; stroke-width: 1; stroke-dasharray: none; stroke-linecap: butt; stroke-dashoffset: 0; stroke-linejoin: miter; stroke-miterlimit: 4; is-custom-font: none; font-file-url: none; fill: rgb(0,0,0); fill-rule: nonzero; opacity: 1;" transform=" translate(-50.0004, -50.0017)" d="M 54.305 45.7 c -2.379 -2.38 -6.231 -2.377 -8.606 -0.001 c -2.379 2.379 -2.379 6.228 0 8.605 c 2.376 2.377 6.227 2.379 8.605 -0.001 C 56.68 51.928 56.68 48.076 54.305 45.7 z" stroke-linecap="round"/>
</g>
		<g transform="matrix(1 0 0 1 -14.2187 -0.0032)" id="Layer_1">
<path style="stroke: none; stroke-width: 1; stroke-dasharray: none; stroke-linecap: butt; stroke-dashoffset: 0; stroke-linejoin: miter; stroke-miterlimit: 4; is-custom-font: none; font-file-url: none; fill: rgb(0,0,0); fill-rule: nonzero; opacity: 1;" transform=" translate(-35.7813, -49.9969)" d="M 43.109 63.089 l 0.019 -0.019 l -0.188 -0.188 c -0.001 -0.001 -0.002 -0.002 -0.003 -0.004 c -0.001 -0.001 -0.002 -0.002 -0.003 -0.003 l -1.503 -1.504 l -0.027 0.027 c -0.022 -0.023 -0.037 -0.05 -0.059 -0.072 c -6.258 -6.258 -6.293 -16.408 -0.119 -22.718 l 0.013 0.013 l 1.697 -1.696 l -0.02 -0.02 c 0.738 -0.927 0.695 -2.266 -0.141 -3.135 l 0.004 -0.004 l -3.018 -3.017 l -0.02 0.02 c -0.868 -0.682 -2.086 -0.679 -2.951 0.009 l -0.019 -0.019 l -0.191 0.191 l 0 0 l 0 0 l -1.381 1.381 l 0 0 h 0 l -0.125 0.125 l 0.003 0.003 c -9.562 9.699 -9.523 25.365 0.123 35.011 c 0.022 0.022 0.049 0.037 0.072 0.059 l -0.006 0.006 l 1.697 1.698 l 0.02 -0.02 c 0.926 0.737 2.264 0.694 3.135 -0.141 l 0.003 0.003 l 0.029 -0.029 c 0.002 -0.002 0.004 -0.003 0.005 -0.004 s 0.003 -0.004 0.004 -0.005 l 2.775 -2.775 c 0.001 -0.001 0.002 -0.001 0.003 -0.002 s 0.001 -0.002 0.002 -0.002 l 0.199 -0.199 l -0.02 -0.02 C 43.8 65.172 43.797 63.953 43.109 63.089 z" stroke-linecap="round"/>
</g>
		<g transform="matrix(1 0 0 1 -28.2485 -0.0012)" id="Layer_1">
<path style="stroke: none; stroke-width: 1; stroke-dasharray: none; stroke-linecap: butt; stroke-dashoffset: 0; stroke-linejoin: miter; stroke-miterlimit: 4; is-custom-font: none; font-file-url: none; fill: rgb(0,0,0); fill-rule: nonzero; opacity: 1;" transform=" translate(-21.7515, -49.9988)" d="M 31.483 74.715 l 0.019 -0.019 l -0.19 -0.19 c 0 0 0 -0.001 -0.001 -0.001 c 0 0 -0.001 0 -0.001 -0.001 l -1.506 -1.505 l -0.027 0.027 c -0.022 -0.023 -0.037 -0.05 -0.059 -0.073 C 17.05 60.284 17.012 39.7 29.597 26.98 l 0.016 0.016 l 1.504 -1.504 c 0.001 -0.001 0.002 -0.001 0.003 -0.002 s 0.001 -0.002 0.002 -0.003 l 0.188 -0.188 l -0.019 -0.019 c 0.738 -0.927 0.696 -2.266 -0.141 -3.136 l 0.004 -0.004 l -1.434 -1.434 c 0 0 -0.001 -0.001 -0.001 -0.001 c -0.001 -0.001 -0.001 -0.001 -0.001 -0.001 l -1.581 -1.581 l -0.02 0.021 c -0.867 -0.682 -2.086 -0.679 -2.951 0.009 l -0.02 -0.02 l -1.696 1.697 l 0.003 0.003 C 7.479 36.943 7.517 63.042 23.574 79.098 c 0.023 0.023 0.05 0.037 0.073 0.059 l -0.007 0.007 l 1.697 1.698 l 0.02 -0.02 c 0.927 0.737 2.266 0.694 3.136 -0.142 l 0.003 0.003 l 0.033 -0.033 h 0 l 0 0 l 2.778 -2.779 c 0.002 -0.002 0.004 -0.003 0.005 -0.004 c 0.002 -0.002 0.003 -0.004 0.004 -0.005 l 0.196 -0.196 l -0.02 -0.02 C 32.174 76.799 32.171 75.58 31.483 74.715 z" stroke-linecap="round"/>
</g>
</g>
</g>
<g transform="matrix(1.3756 0 0 1.3756 373.568 561.3171)" id="210734">
<path style="stroke: none; stroke-width: 1; stroke-dasharray: none; stroke-linecap: butt; stroke-dashoffset: 0; stroke-linejoin: miter; stroke-miterlimit: 4; is-custom-font: none; font-file-url: none; fill: rgb(0,0,0); fill-rule: nonzero; opacity: 1;" vector-effect="non-scaling-stroke" transform=" translate(-245, -245)" d="M 52.8 311.3 c -12.8 -12.8 -12.8 -33.4 0 -46.2 c 6.4 -6.4 14.7 -9.6 23.1 -9.6 s 16.7 3.2 23.1 9.6 l 113.4 113.4 V 32.7 c 0 -18 14.6 -32.7 32.7 -32.7 c 18 0 32.7 14.6 32.7 32.7 v 345.8 L 391 265.1 c 12.8 -12.8 33.4 -12.8 46.2 0 c 12.8 12.8 12.8 33.4 0 46.2 L 268.1 480.4 c -6.1 6.1 -14.4 9.6 -23.1 9.6 c -8.7 0 -17 -3.4 -23.1 -9.6 L 52.8 311.3 z" stroke-linecap="round"/>
</g>
</svg>