<?xml version="1.0" encoding="iso-8859-1"?>
<!-- Generator: Adobe Illustrator 18.0.0, SVG Export Plug-In . SVG Version: 6.00 Build 0)  -->
<!DOCTYPE svg PUBLIC "-//W3C//DTD SVG 1.1//EN" "http://www.w3.org/Graphics/SVG/1.1/DTD/svg11.dtd">
<svg version="1.1" id="Capa_1" xmlns="http://www.w3.org/2000/svg" xmlns:xlink="http://www.w3.org/1999/xlink" x="0px" y="0px"
	 viewBox="-40 -40 550 550" style="enable-background:new 0 0 467.358 467.358;" xml:space="preserve">
<g>
	<path d="M233.68,216.462c2.652,0,5.196-1.054,7.071-2.929c32.349-32.35,32.349-84.986-0.001-117.335
		c-3.905-3.905-10.237-3.904-14.142,0c-32.349,32.349-32.349,84.985,0,117.335C228.483,215.408,231.027,216.462,233.68,216.462z
		 M233.673,118.751c15.13,21.593,15.13,50.636,0,72.229c-7.387-10.507-11.366-23.005-11.366-36.115S226.287,129.258,233.673,118.751
		z"/>
	<path d="M233.679,46.792c5.523,0,10-4.477,10-10V10c0-5.523-4.477-10-10-10s-10,4.477-10,10v26.792
		C223.679,42.315,228.156,46.792,233.679,46.792z"/>
	<path d="M155.044,202.493l-18.945,18.945c-3.905,3.905-3.905,10.237,0,14.143c1.953,1.953,4.512,2.929,7.071,2.929
		s5.119-0.976,7.071-2.929l18.945-18.945c3.905-3.905,3.905-10.237,0-14.143C165.281,198.588,158.949,198.588,155.044,202.493z"/>
	<path d="M305.244,76.436c2.559,0,5.119-0.976,7.071-2.929l18.945-18.945c3.905-3.905,3.905-10.237,0-14.143
		c-3.905-3.905-10.237-3.905-14.143,0l-18.945,18.945c-3.905,3.905-3.905,10.237,0,14.143
		C300.125,75.459,302.685,76.436,305.244,76.436z"/>
	<path d="M132.472,148c5.523,0,10-4.477,10-10s-4.477-10-10-10h-26.793c-5.523,0-10,4.477-10,10s4.477,10,10,10H132.472z"/>
	<path d="M361.679,128h-26.792c-5.523,0-10,4.477-10,10s4.477,10,10,10h26.792c5.523,0,10-4.477,10-10S367.202,128,361.679,128z"/>
	<path d="M155.044,73.507c1.953,1.953,4.512,2.929,7.071,2.929s5.119-0.976,7.071-2.929c3.905-3.905,3.905-10.237,0-14.143
		l-18.945-18.945c-3.905-3.905-10.237-3.905-14.143,0c-3.905,3.905-3.905,10.237,0,14.143L155.044,73.507z"/>
	<path d="M317.118,235.581c1.953,1.953,4.512,2.929,7.071,2.929s5.119-0.976,7.071-2.929c3.905-3.905,3.905-10.237,0-14.143
		l-18.945-18.945c-3.905-3.905-10.237-3.905-14.143,0c-3.905,3.905-3.905,10.237,0,14.143L317.118,235.581z"/>
	<path d="M178.601,31.159c1.595,3.851,5.318,6.176,9.243,6.176c1.275,0,2.572-0.245,3.823-0.764
		c5.103-2.113,7.526-7.963,5.412-13.065l-3.144-7.589c-2.114-5.102-7.964-7.528-13.065-5.412c-5.103,2.113-7.526,7.963-5.412,13.065
		L178.601,31.159z"/>
	<path d="M275.693,36.571c1.251,0.519,2.547,0.764,3.823,0.764c3.924,0,7.647-2.325,9.243-6.176l3.144-7.589
		c2.114-5.103-0.31-10.952-5.412-13.065c-5.1-2.114-10.951,0.31-13.065,5.412l-3.144,7.589
		C268.167,28.608,270.59,34.458,275.693,36.571z"/>
	<path d="M126.839,193.079c5.103-2.113,7.525-7.963,5.412-13.065c-2.114-5.102-7.964-7.528-13.065-5.412l-7.589,3.144
		c-5.103,2.113-7.525,7.963-5.412,13.065c1.595,3.851,5.318,6.176,9.243,6.176c1.275,0,2.572-0.245,3.823-0.764L126.839,193.079z"/>
	<path d="M344.351,102.163c1.275,0,2.572-0.245,3.823-0.764l7.589-3.144c5.103-2.113,7.525-7.963,5.412-13.065
		s-7.963-7.527-13.065-5.412l-7.589,3.144c-5.103,2.113-7.525,7.963-5.412,13.065C336.703,99.838,340.426,102.163,344.351,102.163z"
		/>
	<path d="M111.596,98.255l7.589,3.144c1.251,0.519,2.547,0.764,3.823,0.764c3.924,0,7.647-2.325,9.243-6.176
		c2.113-5.103-0.31-10.952-5.412-13.065l-7.589-3.144c-5.101-2.114-10.952,0.31-13.065,5.412
		C104.071,90.292,106.494,96.142,111.596,98.255z"/>
	<path d="M355.763,177.745l-7.589-3.144c-5.102-2.113-10.951,0.31-13.065,5.412c-2.113,5.103,0.31,10.952,5.412,13.065l7.589,3.144
		c1.251,0.519,2.547,0.764,3.823,0.764c3.924,0,7.647-2.325,9.243-6.176C363.288,185.708,360.865,179.858,355.763,177.745z"/>
	<path d="M338.812,411.358h-56.135v-166.03c0-12.175-9.905-22.08-22.08-22.08h-53.84c-12.175,0-22.08,9.905-22.08,22.08v166.03
		h-56.13c-3.416,0-6.596,1.744-8.432,4.625c-1.836,2.881-2.075,6.5-0.633,9.596l16.761,36c1.641,3.525,5.177,5.779,9.065,5.779
		h176.744c3.889,0,7.424-2.254,9.065-5.779l16.761-36c1.442-3.097,1.203-6.716-0.633-9.596
		C345.408,413.102,342.228,411.358,338.812,411.358z M204.677,245.329c0-1.147,0.933-2.08,2.08-2.08h53.84
		c1.147,0,2.08,0.933,2.08,2.08v166.03h-58V245.329z M315.676,447.358H151.683l-7.45-16h178.893L315.676,447.358z"/>
</g>
<g>
</g>
<g>
</g>
<g>
</g>
<g>
</g>
<g>
</g>
<g>
</g>
<g>
</g>
<g>
</g>
<g>
</g>
<g>
</g>
<g>
</g>
<g>
</g>
<g>
</g>
<g>
</g>
<g>
</g>
</svg>
