<?xml version="1.0" encoding="iso-8859-1"?>
<!-- Generator: Adobe Illustrator 19.0.0, SVG Export Plug-In . SVG Version: 6.00 Build 0)  -->
<svg version="1.1" id="Layer_1" xmlns="http://www.w3.org/2000/svg" xmlns:xlink="http://www.w3.org/1999/xlink" x="0px" y="0px"
	 viewBox="-50 -50 650 650" style="enable-background:new 0 0 512 512;" xml:space="preserve">
<g>
	<g>
		<path d="M258.951,0c-13.868,0-25.411,11.283-25.411,25.15v28.611c8.085-1.387,16.842-2.121,25.411-2.121
			s15.016,0.733,25.411,2.121V25.15C284.362,11.283,272.818,0,258.951,0z"/>
	</g>
</g>
<g>
	<g>
		<path d="M208.188,480.319c10.662,17.327,31.126,31.636,54.228,31.636V512c24.256,0,43.494-14.355,54.155-31.681H208.188z"/>
	</g>
</g>
<g>
	<g>
		<path d="M54.505,414.481v16.059c0,14.733,13.466,27.833,28.2,27.833h348.096c14.733,0,25.664-13.101,25.664-27.833v-16.059H54.505
			z"/>
	</g>
</g>
<g>
	<g>
		<path d="M434.168,335.068l-1.429-0.765c-30.959-32.94-49.043-75.975-49.043-121.178V201.56
			c0-70.038-56.441-127.018-126.479-127.018s-126.479,56.98-126.479,127.018v8.967c0,46.996-17.735,91.045-50.834,124.408
			c-15.125,15.247-23.205,34.5-23.858,56.446h401.447C457.217,369.435,448.638,350.462,434.168,335.068z"/>
	</g>
</g>
<g>
</g>
<g>
</g>
<g>
</g>
<g>
</g>
<g>
</g>
<g>
</g>
<g>
</g>
<g>
</g>
<g>
</g>
<g>
</g>
<g>
</g>
<g>
</g>
<g>
</g>
<g>
</g>
<g>
</g>
</svg>
