<svg width="400" height="400" xmlns="http://www.w3.org/2000/svg">
 <g>
  <title>Layer 1</title>
  <g id="svg_5">
   <g id="svg_6">
    <path id="svg_7" d="m200.00139,122.02271c-21.60558,0 -39.1834,-17.57782 -39.1834,-39.18201c0,-20.20136 32.23458,-61.60093 35.9092,-66.25433c0.79109,-1.00103 1.99789,-1.58636 3.27281,-1.58636c1.27492,0 2.48172,0.58393 3.27281,1.58636c3.67601,4.65479 35.9092,46.05298 35.9092,66.25433c0.00139,21.60419 -17.57504,39.18201 -39.18062,39.18201zm0,-96.01554c-10.90985,14.47185 -30.84148,43.64077 -30.84148,56.83352c0,17.00501 13.83508,30.84009 30.84148,30.84009s30.84148,-13.83369 30.84148,-30.84009c-0.00139,-13.19275 -19.93303,-42.36168 -30.84148,-56.83352z"/>
    <path id="svg_8" d="m200.00139,105.34442c-2.30376,0 -4.17096,-1.8672 -4.17096,-4.17096s1.8672,-4.17096 4.17096,-4.17096c7.80804,0 14.1618,-6.34959 14.1618,-14.15763c0,-2.30376 1.8672,-4.17096 4.17096,-4.17096c2.30237,0 4.17096,1.8672 4.17096,4.17096c-0.00139,12.40583 -10.09651,22.49956 -22.50373,22.49956z"/>
   </g>
   <g id="svg_9"/>
   <g id="svg_10"/>
   <g id="svg_11"/>
   <g id="svg_12"/>
   <g id="svg_13"/>
   <g id="svg_14"/>
   <g id="svg_15"/>
   <g id="svg_16"/>
   <g id="svg_17"/>
   <g id="svg_18"/>
   <g id="svg_19"/>
   <g id="svg_20"/>
   <g id="svg_21"/>
   <g id="svg_22"/>
   <g id="svg_23"/>
  </g>
  <g>
   <g>
    <g>
     <path d="m151.26085,131.66541c-12.73111,0 -23.08701,10.35636 -23.08701,23.08701c0,12.73065 10.3559,23.08701 23.08701,23.08701c12.73065,0 23.08701,-10.35636 23.08701,-23.08701c0,-12.73065 -10.35636,-23.08701 -23.08701,-23.08701zm0,30.78284c-4.24985,0 -7.69582,-3.44551 -7.69582,-7.69582s3.44551,-7.69582 7.69582,-7.69582s7.69582,3.44551 7.69582,7.69582s-3.44597,7.69582 -7.69582,7.69582z"/>
    </g>
   </g>
   <g>
    <g>
     <circle r="7.69582" cy="170.14361" cx="197.43487"/>
    </g>
   </g>
   <g>
    <g>
     <circle r="7.69581" cy="144.49148" cx="217.95676"/>
    </g>
   </g>
   <g>
    <g>
     <path d="m285.64831,208.62227l9.26486,0c4.24985,0 7.69582,-3.44551 7.69582,-7.69582s-3.44551,-7.69582 -7.69582,-7.69582l-21.69452,0l-23.85125,0l-2.49506,0l32.96169,-32.96123c3.00532,-3.00532 3.00532,-7.8779 0,-10.88321c-3.00532,-3.00532 -7.8779,-3.00532 -10.88321,0l-43.84583,43.84444l-74.47148,0l-23.85171,0l-21.69498,0c-4.24985,0 -7.69582,3.44551 -7.69582,7.69582s3.44551,7.69582 7.69582,7.69582l9.26486,0c-10.70437,16.18907 -16.96068,35.57245 -16.96068,56.43497c0,21.1861 6.42778,40.86816 17.43084,57.2158c-9.99959,2.53378 -17.43084,11.51839 -17.43084,22.30618c0,12.75047 10.33562,23.08701 23.08701,23.08701c10.7878,0 19.77287,-7.43078 22.30664,-17.43084c16.34717,11.0026 36.02877,17.43038 57.21534,17.43038c21.18564,0 40.8654,-6.42732 57.21257,-17.42853c2.53378,9.99913 11.51839,17.42853 22.30572,17.42853c12.75139,0 23.08701,-10.33608 23.08701,-23.08701c0,-10.78688 -7.42894,-19.7701 -17.42761,-22.30572c11.00306,-16.34717 17.4313,-36.0297 17.4313,-57.21626c0,-20.86252 -6.25678,-40.24544 -16.96068,-56.43451zm-165.1703,143.65232c-4.24386,0 -7.69582,-3.45243 -7.69582,-7.69582s3.45197,-7.69582 7.69582,-7.69582c4.2434,0 7.69582,3.45243 7.69582,7.69582s-3.45243,7.69582 -7.69582,7.69582zm166.73426,-7.69582c0,4.2434 -3.45243,7.69582 -7.69582,7.69582c-4.2434,0 -7.69582,-3.45243 -7.69582,-7.69582s3.45243,-7.69582 7.69582,-7.69582c4.24386,0 7.69582,3.45243 7.69582,7.69582zm-87.21228,7.69582c-48.09291,0 -87.21735,-39.1249 -87.21735,-87.21735c0,-21.52535 7.87697,-41.21479 20.85377,-56.43497l132.72762,0c12.97679,15.22018 20.85377,34.90962 20.85377,56.43497c-0.00046,48.09245 -39.1249,87.21735 -87.21781,87.21735z"/>
    </g>
   </g>
   <g>
    <g>
     <path d="m264.40874,259.94866c-4.34895,-0.33556 -7.84332,3.09612 -8.03139,7.34459c-1.29754,29.11424 -25.13081,53.08072 -54.26072,54.15794c-4.24616,0.15534 -7.56261,3.72761 -7.40543,7.97654c0.15303,4.1489 3.5672,7.4105 7.68568,7.4105c0.09541,0 0.19313,0 0.29039,-0.00507c37.07557,-1.37313 67.41452,-31.79229 69.0656,-68.85772c0.18806,-4.24386 -3.09843,-7.84102 -7.34413,-8.02678z"/>
    </g>
   </g>
   <g/>
   <g/>
   <g/>
   <g/>
   <g/>
   <g/>
   <g/>
   <g/>
   <g/>
   <g/>
   <g/>
   <g/>
   <g/>
   <g/>
   <g/>
  </g>
 </g>

</svg>