<?xml version="1.0" standalone="no"?>
<!DOCTYPE svg PUBLIC "-//W3C//DTD SVG 20010904//EN"
 "http://www.w3.org/TR/2001/REC-SVG-20010904/DTD/svg10.dtd">
<svg version="1.0" xmlns="http://www.w3.org/2000/svg"
 width="256.000000pt" height="256.000000pt" viewBox="0 0 256.000000 256.000000"
 preserveAspectRatio="xMidYMid meet">

<g transform="translate(0.000000,256.000000) scale(0.100000,-0.100000)"
fill="#000000" stroke="none">
<path d="M729 2081 c-108 -35 -180 -100 -233 -211 -28 -58 -31 -75 -31 -160 0
-87 3 -101 33 -165 31 -65 64 -101 505 -542 441 -441 477 -474 542 -505 64
-30 78 -33 165 -33 86 0 101 3 162 32 84 40 151 107 192 193 28 59 31 74 31
160 0 83 -4 103 -29 160 -27 60 -65 101 -495 533 -256 257 -486 481 -511 497
-94 59 -223 76 -331 41z m216 -118 c35 -12 71 -37 127 -92 l79 -76 -194 -193
-193 -193 -76 79 c-53 56 -80 93 -91 127 -36 105 -13 210 63 286 75 75 181 98
285 62z m533 -496 l233 -233 -196 -189 -196 -189 -232 232 -232 232 190 190
c104 104 192 190 195 190 3 0 110 -105 238 -233z m485 -522 c76 -222 -126
-424 -348 -348 -35 12 -71 38 -128 92 l-79 76 193 193 194 193 76 -78 c55 -57
80 -93 92 -128z"/>
<path d="M767 1792 c-36 -39 -7 -102 45 -102 24 0 58 35 58 60 0 27 -35 60
-63 60 -13 0 -31 -8 -40 -18z"/>
<path d="M1240 1530 c-11 -11 -20 -29 -20 -40 0 -27 35 -60 64 -60 32 0 56 25
56 59 0 55 -61 80 -100 41z"/>
<path d="M1030 1320 c-39 -39 -14 -100 43 -100 53 0 76 61 37 100 -11 11 -29
20 -40 20 -11 0 -29 -9 -40 -20z"/>
<path d="M1439 1316 c-16 -34 -4 -70 26 -84 35 -16 42 -15 65 8 41 41 13 100
-49 100 -24 0 -34 -6 -42 -24z"/>
<path d="M1236 1114 c-36 -35 -7 -104 42 -104 28 0 62 34 62 60 0 48 -71 78
-104 44z"/>
<path d="M1730 842 c-25 -21 -30 -66 -9 -87 29 -27 57 -27 84 -1 30 30 31 47
8 74 -27 30 -57 35 -83 14z"/>
<path d="M1585 2080 c-83 -27 -159 -86 -163 -127 -6 -63 56 -83 112 -36 52 44
105 63 176 63 145 0 256 -102 267 -244 7 -77 -7 -123 -59 -197 -33 -47 -37
-60 -29 -81 10 -26 29 -38 61 -38 28 0 97 85 121 149 73 193 -8 404 -188 493
-85 42 -204 49 -298 18z"/>
<path d="M557 1108 c-16 -18 -44 -62 -61 -98 -28 -59 -31 -74 -31 -160 0 -86
3 -102 31 -160 17 -36 45 -82 63 -102 68 -77 183 -128 292 -128 123 0 281 80
287 147 6 63 -56 83 -112 36 -52 -44 -105 -63 -176 -63 -145 0 -256 102 -267
244 -7 76 7 123 55 190 19 27 35 60 35 73 0 61 -67 72 -116 21z"/>
</g>
</svg>
