<?xml version="1.0" encoding="iso-8859-1"?>
<!-- Generator: Adobe Illustrator 16.0.0, SVG Export Plug-In . SVG Version: 6.00 Build 0)  -->
<!DOCTYPE svg PUBLIC "-//W3C//DTD SVG 1.1//EN" "http://www.w3.org/Graphics/SVG/1.1/DTD/svg11.dtd">
<svg version="1.1" id="Capa_1" xmlns="http://www.w3.org/2000/svg" xmlns:xlink="http://www.w3.org/1999/xlink" x="0px" y="0px"
	 width="579.55px" height="579.55px" viewBox="-75 -75 700 700" style="enable-background:new 0 0 579.55 579.55;"
	 xml:space="preserve">
<g>
	<g>
		<path d="M273.573,231.646c-1.5,0.3-2.8,1.2-3.7,2.1c-75.6-9.2-112.9,144.4-20.2,161c1.5,0.3,3.1,0.3,4.6,0.6
			c4.6,2.101,9.2,4.301,14.1,5.2c5.8,1.5,10.4-1.6,12.9-5.5c39.201-5.5,75-32.7,80.201-74.1
			C368.174,271.946,325.873,220.246,273.573,231.646z M244.773,272.346c10.4-4.3,19.9-6.1,27.5,6.1c8.3,12.5,3.4,28.5-10.4,34
			C235.973,322.445,236.873,292.146,244.773,272.346z"/>
		<path d="M258.873,426.245c0.9-3.7-0.3-7.7-4.9-8.9c-18.7-4.3-33.7-4.899-50.5-16.199c-16.8-11.601-31.5-33.4-39.2-52.301
			c-1.2-3.1-6.4-3.1-6.1,0.9c0,0.6,0,0.9,0.3,1.5c-86.3-18.4-136.5,105.3-71.6,160.7c45,38.2,138,6.1,158.5-49.3
			c7.3-8.601,15-20.801,15-31.5C260.073,428.945,259.773,427.445,258.873,426.245z M130.073,499.646c-4.3,0-7,2.1-8.9,4.899
			c-6.4-4.899-14.7-12.5-12.9-21.399c2.1-10.7,16.8-13.2,25.7-11.9c8.9,1.2,14.7,7,14.4,15.9v0.3c0,0.3,0,0.6,0,0.899
			C146.873,496.545,137.073,499.345,130.073,499.646z"/>
		<path d="M385.873,352.445c-1.199-6.7-10.399-10.4-14.699-3.101c-8.9,15.301-16.2,28.801-30,40.4c-2.4,2.1-5.2,4.3-8,6.1
			c-2.801,1.801-5.5,3.7-8.301,5.801c-10.399,6.699-21.399,12.199-32.699,17.1c-4.001,1.8-4.001,5.8-1.801,8.9
			c-0.6,0.3-1.2,0.6-1.5,1.199c-22.3,25.7,3.4,67.9,20.2,89c31.8,40.101,85.7,41.301,126.101,14.101
			C506.773,483.745,476.773,345.445,385.873,352.445z M433.974,456.245c-7.7,7-25.7,0-28.5-8.9c-3.7-11.899,9.8-23.6,20.2-30.6
			c5.8,3.1,10.699,6.1,13.5,14.7C441.873,440.245,440.674,450.045,433.974,456.245z"/>
		<path d="M242.073,193.346c-35.5-7-45.3-33.4-38.2-65.5c2.1-9.2-8-18.7-16.5-12.9c-12.2,8.3-62.7,35.5-54.8-19
			c0.9-6.4-2.8-14.7-10.4-13.8c-39.8,3.7-76.8-4-89.7-46.5c-2.8-9.8-18.4-8.3-18.1,2.4c0,1.8,0.3,3.7,0.6,5.8
			c-3.1,2.4-4.6,6.7-2.8,10.7c16.2,32.7,28.8,86-6.7,111.1c-8.9,6.1-7,23.9,6.1,22.6c30.3-3.1,52.3,18.4,43.8,47.7
			c-3.1,10.7,8.6,17.4,17.4,13.2c48.3-23,51.1,16.2,71,39.2c0.6,0.6,1.2,1.2,2.1,1.8c0.3,2.1,0.6,4,1.2,6.1c1.5,6.1,12.2,7,13.2,0
			c5.5-37.899,26.6-75,68.2-80.2c5.8-0.9,9.5-4.9,11-9.5c0.3,0,0.6,0,0.9,0C247.273,206.246,249.373,194.846,242.073,193.346z"/>
		<path d="M575.873,167.346c-31.199-28.5-35.8-66.1-15.3-102.2c3.101-5.5-2.1-10.1-7.3-8.9c-4.3-3.4-9.8-4-14.4,1.2
			c-22.899,26.9-70.399,41.9-97.6,11.9c-8.3-8.9-22.3,0.6-19.6,11.3c10.699,43.5-35.2,38.2-53.601,30c-10.7-4.9-22,5.2-16.2,16.2
			c0.601,33.7-11,51.4-35.199,53.2c-4.9,0.9-6.4,5.8-5.2,9.8c-3.7,4.9,0,13.8,7.3,14.7c23.6,2.8,43.1,11.3,57.5,30.9
			c6.1,8.6,10.1,18.4,12.9,28.5c2.8,10.4,0.3,20.5,5.199,30.299c2.4,4.6,9.2,5.2,12.5,1.5c2.4-2.8,4.301-6.1,5.5-9.5
			c2.101,0,4.601-0.3,6.4-2.1c23.6-18.4,32.4-61.2,75-43.5c9.2,4,19.3-2.4,16.8-12.9c-9.5-39.8,21.7-50.2,52.601-40.1
			C575.573,192.146,585.073,175.646,575.873,167.346z"/>
	</g>
</g>
<g>
</g>
<g>
</g>
<g>
</g>
<g>
</g>
<g>
</g>
<g>
</g>
<g>
</g>
<g>
</g>
<g>
</g>
<g>
</g>
<g>
</g>
<g>
</g>
<g>
</g>
<g>
</g>
<g>
</g>
</svg>
