<?xml version="1.0" standalone="no"?>
<!DOCTYPE svg PUBLIC "-//W3C//DTD SVG 20010904//EN"
 "http://www.w3.org/TR/2001/REC-SVG-20010904/DTD/svg10.dtd">
<svg version="1.0" xmlns="http://www.w3.org/2000/svg"
 width="200.000000pt" height="200.000000pt" viewBox="0 0 200.000000 200.000000"
 preserveAspectRatio="xMidYMid meet">

<g transform="translate(0.000000,200.000000) scale(0.100000,-0.100000)"
fill="#000000" stroke="none">
<path d="M1462 1824 c-51 -36 -5 -122 50 -93 39 21 49 51 26 81 -20 25 -51 30
-76 12z"/>
<path d="M272 1744 c-51 -36 -5 -122 50 -93 39 21 49 51 26 81 -20 25 -51 30
-76 12z"/>
<path d="M854 1672 c-58 -37 -70 -128 -24 -177 l21 -22 -30 -30 c-40 -41 -58
-101 -43 -152 16 -51 48 -90 88 -107 40 -17 256 -19 301 -4 16 6 58 42 92 80
l62 70 -60 67 -61 67 26 27 c33 35 42 95 20 137 -35 68 -130 81 -187 26 l-29
-28 -29 28 c-39 37 -103 45 -147 18z m91 -92 c18 -19 18 -22 2 -37 -16 -16
-18 -16 -39 4 -18 18 -19 24 -8 37 16 21 23 20 45 -4z m223 -4 c2 -10 -10 -32
-29 -52 -27 -28 -41 -34 -73 -34 l-40 0 54 55 c55 56 82 65 88 31z m-210 -249
c3 -67 3 -67 -24 -67 -64 0 -88 79 -37 120 45 35 58 24 61 -53z m196 52 c48
-38 22 -119 -39 -119 -24 0 -25 2 -25 70 0 62 2 70 19 70 10 0 30 -9 45 -21z"/>
<path d="M435 1516 c-30 -45 13 -98 66 -81 55 18 38 105 -21 105 -20 0 -35 -8
-45 -24z"/>
<path d="M1397 1522 c-22 -24 -21 -55 1 -75 36 -33 92 -8 92 41 0 47 -61 69
-93 34z"/>
<path d="M1747 1512 c-33 -37 -11 -92 37 -92 48 0 73 62 38 93 -24 22 -55 21
-75 -1z"/>
<path d="M190 1260 c-24 -24 -25 -38 -4 -68 35 -51 117 -8 95 50 -16 42 -59
50 -91 18z"/>
<path d="M510 1230 c-24 -24 -25 -38 -4 -68 35 -51 117 -8 95 50 -16 42 -59
50 -91 18z"/>
<path d="M1632 1208 c-19 -19 -14 -63 8 -83 46 -41 116 29 75 75 -20 22 -64
27 -83 8z"/>
<path d="M493 988 l-72 -72 -53 34 c-29 18 -68 42 -86 52 l-32 20 0 -174 c0
-207 9 -243 80 -321 42 -46 97 -81 163 -101 15 -5 17 -19 17 -114 0 -71 4
-114 12 -124 19 -24 52 -30 74 -14 16 12 20 30 24 132 l5 117 41 12 c49 14
123 65 151 103 63 85 76 152 67 340 l-6 143 -32 -19 c-17 -11 -55 -34 -84 -52
l-53 -34 -72 72 -72 72 -72 -72z m249 -182 l38 24 0 -44 c0 -93 -19 -146 -70
-197 -87 -86 -203 -87 -290 0 -51 51 -70 102 -70 191 l0 52 43 -25 44 -26 63
64 63 64 70 -64 71 -63 38 24z"/>
<path d="M1425 990 c-38 -38 -74 -70 -79 -70 -5 0 -45 23 -88 50 -43 28 -81
50 -83 50 -10 0 -5 -311 6 -360 21 -98 107 -191 209 -227 l50 -18 0 -111 c0
-97 2 -113 20 -129 26 -23 68 -13 80 21 6 14 10 70 10 125 0 86 2 100 18 105
88 26 170 93 214 176 21 40 23 58 26 231 2 103 1 187 -2 187 -2 0 -41 -23 -86
-52 l-81 -51 -72 71 -73 72 -69 -70z m232 -193 c59 41 57 42 50 -34 -9 -110
-44 -175 -112 -211 -89 -46 -177 -33 -246 37 -53 52 -69 95 -69 184 l0 58 43
-25 43 -26 64 65 64 65 67 -66 67 -67 29 20z"/>
</g>
</svg>
