<?xml version="1.0" standalone="no"?>
<!DOCTYPE svg PUBLIC "-//W3C//DTD SVG 20010904//EN"
 "http://www.w3.org/TR/2001/REC-SVG-20010904/DTD/svg10.dtd">
<svg version="1.0" xmlns="http://www.w3.org/2000/svg"
 width="512.000000pt" height="512.000000pt" viewBox="0 0 512.000000 512.000000"
 preserveAspectRatio="xMidYMid meet">

<g transform="translate(0.000000,512.000000) scale(0.100000,-0.100000)"
fill="#000000" stroke="none">
<path d="M340 4932 c0 -4 402 -409 894 -901 l894 -894 91 62 c164 112 358 196
512 220 34 6 63 12 65 14 2 1 -335 341 -749 755 l-752 752 -478 0 c-262 0
-477 -3 -477 -8z"/>
<path d="M180 4065 l0 -110 720 -720 c395 -395 721 -717 723 -715 2 3 20 35
39 71 l36 66 -759 759 -759 759 0 -110z"/>
<path d="M180 3580 l0 -105 670 -670 c604 -604 670 -667 670 -640 0 17 6 58
13 92 l13 62 -683 683 -683 683 0 -105z"/>
<path d="M2693 3220 c-447 -117 -911 -608 -983 -1039 -29 -176 25 -306 151
-360 81 -35 253 -27 369 17 l25 10 1 -202 c0 -224 14 -344 69 -601 31 -145
134 -506 154 -542 4 -9 12 35 20 109 25 263 79 448 148 508 34 30 46 34 93 30
114 -10 297 -257 512 -695 43 -87 67 -127 63 -105 -50 294 -45 416 23 515 100
147 366 104 749 -121 187 -109 466 -304 677 -472 81 -65 79 -59 -28 68 -190
227 -376 495 -465 669 -74 145 -102 232 -108 333 -5 76 -3 92 17 133 27 56 83
99 159 123 79 24 280 21 431 -6 63 -11 116 -20 117 -18 1 1 -64 29 -145 61
-267 107 -495 231 -628 342 -164 137 -167 263 -9 338 93 44 313 84 462 85 64
1 51 7 -152 75 -452 150 -880 226 -1187 211 -71 -3 -128 -4 -128 -1 0 3 10 40
22 82 26 93 31 246 9 307 -21 60 -84 122 -147 146 -71 26 -192 26 -291 0z
m149 -226 c82 -57 113 -158 88 -287 l-12 -64 -56 -18 c-32 -9 -96 -37 -143
-61 -192 -99 -316 -244 -399 -468 -30 -81 -38 -86 -163 -87 -128 -1 -200 47
-232 153 -20 68 -19 109 4 200 50 196 206 402 406 538 88 60 115 73 206 105
63 22 88 25 166 22 84 -3 97 -6 135 -33z"/>
</g>
</svg>
