<svg width="547" height="495" viewBox="-112 -100 700 700" xmlns="http://www.w3.org/2000/svg">

 <g>
  <title>Layer 1</title>
  <g>
   <g>
    <path d="m362.05873,179.95c11.7217,12.8 11.7217,33.4 0,46.2c-5.86085,6.4 -13.46165,9.6 -21.15401,9.6s-15.29316,-3.2 -21.15401,-9.6l-103.7554,-113.4l0,345.8c0,18 -13.37007,32.7 -29.94529,32.7s-29.94529,-14.6 -29.94529,-32.7l0,-345.8l-103.7554,113.4c-11.7217,12.8 -30.58632,12.8 -42.30803,0s-11.7217,-33.4 0,-46.2l154.85471,-169.1c5.58612,-6.2 13.18692,-9.6 21.15401,-9.6c7.9671,0 15.56789,3.4 21.15401,9.6l154.85471,169.1z"/>
   </g>
   <g/>
   <g/>
   <g/>
   <g/>
   <g/>
   <g/>
   <g/>
   <g/>
   <g/>
   <g/>
   <g/>
   <g/>
   <g/>
   <g/>
   <g/>
  </g>
  <g>

   <path transform="translate(0)" d="m404.71894,465.71901l-13.56252,0l0,-14.03127a20.36615,21.07005 0 0 0 -20.34377,-21.0469l-27.12503,0a20.36615,21.07005 0 0 0 -20.34377,21.0469l0,14.03127l-13.56252,0l0,-14.03127a33.9463,35.11956 0 0 1 33.90629,-35.07817l27.12503,0a33.9463,35.11956 0 0 1 33.90629,35.07817l0,14.03127z"/>
   <path transform="translate(0)" d="m357.25014,346.45324a20.34377,21.0469 0 1 1 -20.34377,21.0469a20.34377,21.0469 0 0 1 20.34377,-21.0469m0,-14.03127a33.90629,35.07817 0 1 0 33.90629,35.07817a33.90629,35.07817 0 0 0 -33.90629,-35.07817z"/>
   <path transform="translate(0)" d="m452.18775,465.71901l-13.56252,0l0,-108.99559l-81.3751,-71.23604l-81.3751,71.23604l0,108.99559l-13.56252,0l0,-112.25014a6.78126,7.01563 0 0 1 2.40057,-5.35573l88.15635,-77.17197a6.78126,7.01563 0 0 1 8.76139,0l88.15635,77.17197a6.78126,7.01563 0 0 1 2.40057,5.35573l0,112.25014z"/>
   <rect x="248.75001" y="255.25" fill="none" height="224.50028" width="217.00026" class="cls-1" data-name="&lt;Transparent Rectangle&gt;" id="svg_4"/>
  </g>
 </g>
</svg>