<svg width="547" height="495" viewBox="-75 -75 700 700" xmlns="http://www.w3.org/2000/svg">

 <g>
  <title>Layer 1</title>
  <g>
   <g>
    <g>
     <path d="m383.59569,370.3436c-8.67477,8.01637 -8.67477,21.01809 -0.0073,29.03784c8.68207,8.03325 22.7398,8.0265 31.40727,0.00338c8.68572,-8.0265 8.68572,-21.02146 0,-29.05134c-8.66747,-8.01975 -22.72155,-8.02312 -31.39997,0.01013z"/>
     <path d="m496.18889,483.30866c58.2892,-54.37296 58.15052,-142.46194 -0.44523,-196.656c-0.08394,-0.07763 -0.18247,-0.12489 -0.26641,-0.19914l0.0219,-0.02025l-6.18949,-5.73129l-0.07299,0.06751c-3.38305,-2.49098 -8.26968,-2.34584 -11.44471,0.47592l-0.01095,-0.01013l-0.09489,0.08776c-0.01095,0.00675 -0.01825,0.0135 -0.0292,0.02363c-0.0073,0.00675 -0.0146,0.01688 -0.0219,0.027l-10.11996,9.35637c-0.00365,0.00338 -0.0073,0.00338 -0.0073,0.00675s-0.00365,0.00675 -0.0073,0.00675l-0.72989,0.67506l0.07299,0.06751c-2.48893,2.92977 -2.47433,7.04428 0.03649,9.96056l-0.06934,0.06413l0.6934,0.64131l0,0.00338l0.00365,0l5.49609,5.07985l0.09854,-0.09113c0.08029,0.07763 0.13503,0.16877 0.21897,0.2464c46.22773,42.7585 46.37371,112.24274 0.44523,155.17675l-0.06204,-0.05738l-5.48879,5.07647c-0.00365,0.00338 -0.0073,0.00338 -0.01095,0.00675s-0.00365,0.00675 -0.0073,0.01013l-0.6861,0.63456l0.06934,0.06413c-2.6933,3.12892 -2.53638,7.64846 0.51457,10.58499l-0.01095,0.01013l0.11313,0.10463c0.00365,0.00338 0.00365,0.00675 0.0073,0.01013c0.00365,0.00338 0.0073,0.00338 0.01095,0.00675l5.09465,4.71194c0.00365,0.00338 0.0073,0.00675 0.0073,0.01013s0.0073,0.00338 0.01095,0.00675l5.02166,4.64443c0.00365,0.00338 0.0073,0.00675 0.0073,0.01013c0.00365,0.00338 0.0073,0.00338 0.01095,0.00675l0.72259,0.66831l0.07299,-0.06751c3.16773,2.30197 7.62008,2.29184 10.77321,-0.03038l0.06934,0.06413l5.71871,-5.29249c0.0073,-0.00675 0.01095,-0.01013 0.01825,-0.0135c0.0219,-0.02025 0.04379,-0.0405 0.06569,-0.06413l0.39049,-0.36116l-0.01095,-0.00338z"/>
     <path d="m453.76024,444.07061c34.8925,-32.73718 34.75382,-85.61487 -0.44888,-118.16979c-0.08394,-0.07763 -0.18247,-0.12489 -0.26641,-0.20252l0.02555,-0.02363l-6.19314,-5.73129l-0.07299,0.06751c-3.38305,-2.48761 -8.26968,-2.34584 -11.44471,0.47592l-0.01095,-0.01013l-0.10583,0.09788c-0.0073,0.00675 -0.01095,0.01013 -0.01825,0.0135s-0.01095,0.01013 -0.0146,0.01688l-10.12361,9.36312c-0.00365,0.00338 -0.01095,0.00675 -0.0146,0.01013c-0.00365,0.00338 -0.0073,0.00675 -0.01095,0.0135l-0.72259,0.66831l0.07299,0.06751c-2.48893,2.9264 -2.47798,7.04428 0.03285,9.96056l-0.06934,0.06413l0.68975,0.63793c0.00365,0.00338 0.00365,0.00338 0.0073,0.00675c0.00365,0.00338 0.00365,0.00338 0.0073,0.00675l5.48879,5.07985l0.09854,-0.09113c0.08029,0.07763 0.13503,0.16877 0.21897,0.2464c22.83833,21.11935 22.96606,55.3788 0.43429,76.67704l-0.04744,-0.04388l-5.49244,5.07985c-0.00365,0 -0.00365,0.00338 -0.0073,0.00338s-0.00365,0.00338 -0.00365,0.00675l-0.68975,0.63793l0.06934,0.06413c-2.68965,3.12892 -2.53638,7.64509 0.51457,10.58161l-0.0146,0.0135l10.27688,9.50151l0,0l0,0l0.73354,0.67844l0.07299,-0.06751c3.16773,2.29859 7.61643,2.28846 10.76956,-0.03038l0.07299,0.06751l5.73695,-5.306l0,0l0,0l0.45618,-0.42191l-0.0073,-0.01013z"/>
    </g>
    <g>
     <path d="m415.01026,370.35373c-8.68207,-8.03325 -22.7398,-8.02312 -31.40727,-0.00338c-8.68207,8.02988 -8.68207,21.02146 0,29.04459c8.67112,8.02312 22.7252,8.02988 31.40362,-0.00338c8.67112,-8.01637 8.67112,-21.01809 0.00365,-29.03784z"/>
     <path d="m374.15089,429.04709l0.06934,-0.06413l-0.6861,-0.63456c-0.00365,-0.00338 -0.0073,-0.00675 -0.01095,-0.0135c-0.00365,-0.00338 -0.0073,-0.00675 -0.01095,-0.01013l-5.48514,-5.07647l-0.09854,0.09113c-0.08029,-0.07763 -0.13503,-0.16877 -0.21532,-0.24302c-22.83833,-21.12272 -22.96606,-55.38217 -0.43429,-76.68041l0.04744,0.04388l6.19314,-5.72453l-0.07299,-0.06751c2.6933,-3.12892 2.53638,-7.64846 -0.51457,-10.58161l0.0146,-0.0135l-11.01408,-10.18333l-0.07299,0.06751c-3.16773,-2.30197 -7.61278,-2.29184 -10.76956,0.03038l-0.06934,-0.06413l-0.69705,0.64469l0,0l0,0l-5.03991,4.66131l0,0l0,0l-0.45618,0.42191l0.01095,0.01013c-34.89615,32.73718 -34.75382,85.61487 0.44888,118.17317c0.08029,0.07426 0.17882,0.12489 0.26276,0.19914l-0.0219,0.02025l6.19314,5.73129l0.07299,-0.06751c3.3794,2.48761 8.26238,2.34247 11.44106,-0.47592l0.01095,0.01013l0.10583,-0.09788c0.0073,-0.00675 0.0146,-0.01013 0.01825,-0.0135s0.01095,-0.0135 0.0146,-0.01688l10.12726,-9.3665c0.00365,-0.00338 0.0073,-0.00338 0.01095,-0.00675s0.00365,-0.00675 0.0073,-0.00675l0.72624,-0.67169l-0.07299,-0.06751c2.48893,-2.9264 2.47798,-7.04091 -0.03285,-9.95718z"/>
     <path d="m331.72225,468.2885l0.06934,-0.06413l-0.6934,-0.64131c0,0 0,-0.00338 -0.00365,-0.00338c0,0 -0.00365,0 -0.00365,-0.00338l-5.49609,-5.07985l-0.09854,0.09113c-0.08029,-0.07763 -0.13503,-0.16877 -0.21532,-0.2464c-46.23138,-42.76187 -46.37006,-112.23936 -0.44158,-155.17337l0.05839,0.05401l5.48879,-5.07647c0.00365,-0.00338 0.0073,-0.00338 0.01095,-0.00675s0.00365,-0.00675 0.0073,-0.01013l0.6861,-0.63456l-0.06934,-0.06413c2.6933,-3.12892 2.54003,-7.64846 -0.51457,-10.58499l0.0146,-0.0135l-5.23333,-4.8402c0,0 -0.00365,-0.00338 -0.00365,-0.00338c-0.00365,-0.00338 -0.00365,-0.00338 -0.00365,-0.00338l-5.7698,-5.33637l-0.07299,0.07088c-3.16408,-2.30197 -7.61278,-2.29184 -10.76956,0.03038l-0.07299,-0.06751l-6.18949,5.72791l0.01095,0.01013c-58.2965,54.37633 -58.15782,142.46869 0.44158,196.66275c0.08394,0.07763 0.18247,0.12489 0.26641,0.19914l-0.02555,0.02363l6.19314,5.73129l0.07299,-0.06751c3.38305,2.48761 8.26968,2.34247 11.44471,-0.47929l0.01095,0.01013l0.12043,-0.11139l0,0l0,0l10.1382,-9.38c0.0073,-0.00675 0.0146,-0.01013 0.01825,-0.0135c0.0073,-0.00675 0.01095,-0.0135 0.0146,-0.01688l0.71529,-0.66156l-0.07299,-0.06751c2.48893,-2.9264 2.47798,-7.04091 -0.03285,-9.96056z"/>
    </g>
   </g>
  </g>
  <g>
   <g>
    <path d="m360.80873,178.7c11.7217,12.8 11.7217,33.4 0,46.2c-5.86085,6.4 -13.46165,9.6 -21.15401,9.6s-15.29316,-3.2 -21.15401,-9.6l-103.7554,-113.4l0,345.8c0,18 -13.37007,32.7 -29.94529,32.7s-29.94529,-14.6 -29.94529,-32.7l0,-345.8l-103.7554,113.4c-11.7217,12.8 -30.58632,12.8 -42.30803,0s-11.7217,-33.4 0,-46.2l154.85471,-169.1c5.58612,-6.2 13.18692,-9.6 21.15401,-9.6c7.9671,0 15.56789,3.4 21.15401,9.6l154.85471,169.1z"/>
   </g>
   <g/>
   <g/>
   <g/>
   <g/>
   <g/>
   <g/>
   <g/>
   <g/>
   <g/>
   <g/>
   <g/>
   <g/>
   <g/>
   <g/>
   <g/>
  </g>
 </g>
</svg>