<svg width="547" height="495" viewBox="-120 -100 700 700" xmlns="http://www.w3.org/2000/svg">

 <g>
  <title>Layer 1</title>
  <g>

   <path d="m424.71897,220.71866l-13.56252,0l0,-14.03127a20.36615,21.07005 0 0 0 -20.34377,-21.0469l-27.12503,0a20.36615,21.07005 0 0 0 -20.34377,21.0469l0,14.03127l-13.56252,0l0,-14.03127a33.9463,35.11956 0 0 1 33.90629,-35.07817l27.12503,0a33.9463,35.11956 0 0 1 33.90629,35.07817l0,14.03127z"/>
   <path d="m377.25017,101.45289a20.34377,21.0469 0 1 1 -20.34377,21.0469a20.34377,21.0469 0 0 1 20.34377,-21.0469m0,-14.03127a33.90629,35.07817 0 1 0 33.90629,35.07817a33.90629,35.07817 0 0 0 -33.90629,-35.07817z"/>
   <path d="m472.18778,220.71866l-13.56252,0l0,-108.99559l-81.3751,-71.23604l-81.3751,71.23604l0,108.99559l-13.56252,0l0,-112.25014a6.78126,7.01563 0 0 1 2.40057,-5.35573l88.15635,-77.17197a6.78126,7.01563 0 0 1 8.76139,0l88.15635,77.17197a6.78126,7.01563 0 0 1 2.40057,5.35573l0,112.25014z"/>
   <rect x="268.75004" y="10.24965" fill="none" height="224.50028" width="217.00026" class="cls-1" data-name="&lt;Transparent Rectangle&gt;" id="svg_4"/>
  </g>
  <g>
   <g>
    <path d="m11.29991,313.8c-12.8,-12.8 -12.8,-33.4 0,-46.2c6.4,-6.4 14.7,-9.6 23.1,-9.6s16.7,3.2 23.1,9.6l113.4,113.4l0,-345.8c0,-18 14.6,-32.7 32.7,-32.7c18,0 32.7,14.6 32.7,32.7l0,345.8l113.2,-113.4c12.8,-12.8 33.4,-12.8 46.2,0c12.8,12.8 12.8,33.4 0,46.2l-169.1,169.1c-6.1,6.1 -14.4,9.6 -23.1,9.6c-8.7,0 -17,-3.4 -23.1,-9.6l-169.1,-169.1z"/>
   </g>
   <g/>
   <g/>
   <g/>
   <g/>
   <g/>
   <g/>
   <g/>
   <g/>
   <g/>
   <g/>
   <g/>
   <g/>
   <g/>
   <g/>
   <g/>
  </g>
 </g>
</svg>